<?xml version="1.0" standalone="no"?>
<!DOCTYPE svg PUBLIC "-//W3C//DTD SVG 20010904//EN"
 "http://www.w3.org/TR/2001/REC-SVG-20010904/DTD/svg10.dtd">
<svg version="1.0" xmlns="http://www.w3.org/2000/svg"
 width="600.000000pt" height="600.000000pt" viewBox="0 0 600.000000 600.000000"
 preserveAspectRatio="xMidYMid meet">

<g transform="translate(0.000000,600.000000) scale(0.100000,-0.100000)"
fill="#000000" stroke="none">
<path d="M3126 4554 c-242 -77 -360 -337 -276 -609 49 -159 129 -284 279 -438
122 -125 254 -232 453 -368 l142 -96 106 70 c478 319 703 571 781 875 44 172
9 329 -98 443 -95 102 -200 144 -338 137 -151 -8 -290 -98 -396 -256 -28 -43
-52 -77 -54 -77 -2 0 -26 34 -54 77 -67 99 -148 173 -241 217 -66 31 -85 36
-165 38 -61 2 -106 -2 -139 -13z"/>
<path d="M4800 3139 c-61 -32 -186 -131 -360 -281 -85 -74 -239 -189 -288
-214 -2 -1 9 -21 24 -43 32 -48 42 -122 25 -174 -27 -80 -146 -163 -270 -188
-61 -13 -77 -11 -410 44 -190 32 -371 60 -401 63 -68 7 -190 -9 -272 -37 -59
-20 -63 -20 -75 -3 -20 28 -16 43 19 64 54 32 163 53 283 52 87 0 180 -12 440
-57 355 -61 396 -63 482 -25 119 52 163 136 113 217 -33 55 -97 78 -336 123
-412 77 -559 119 -846 241 -290 124 -486 163 -691 140 -236 -26 -396 -101
-625 -290 -46 -38 -115 -86 -153 -106 l-69 -36 14 -32 c52 -125 340 -773 345
-778 3 -4 71 22 151 56 169 73 218 85 354 85 121 0 129 -2 578 -130 194 -56
394 -108 443 -116 117 -21 267 -15 350 14 57 20 774 395 953 498 53 30 105 71
140 109 68 73 428 574 449 624 22 51 11 107 -26 145 -27 27 -39 31 -85 32 -32
0 -62 7 -77 17 -39 28 -114 22 -179 -14z"/>
<path d="M1028 2642 l-207 -65 13 -31 c26 -60 489 -1111 492 -1114 1 -2 92 49
203 113 l200 116 -23 52 c-391 890 -440 997 -455 996 -9 0 -109 -30 -223 -67z"/>
</g>
</svg>
